<svg width="41" height="40" viewBox="0 0 41 40" fill="none" xmlns="http://www.w3.org/2000/svg">
<path d="M20.5 0C9.18918 0 0 8.80538 0 19.6438C0 29.4828 7.57338 37.6253 17.437 39.0452L18.5071 39.2004V23.7211H13.6642V20.5785H18.5071V16.4053C18.5071 13.8354 19.1507 12.1429 20.2161 11.081C21.2815 10.0191 22.8556 9.48357 25.0463 9.48357C26.7979 9.48357 27.4793 9.58527 28.1274 9.66145V12.2338H25.847C24.5531 12.2338 23.4916 12.9255 22.9406 13.8469C22.3896 14.7683 22.218 15.8684 22.218 16.9895V20.5768H27.9236L27.4158 23.7194H22.218V39.2248L23.2754 39.087C33.2793 37.7869 41 29.5789 41 19.6438C41 8.80538 31.8108 0 20.5 0ZM20.5 1.7858C30.8036 1.7858 39.1364 9.7705 39.1364 19.6438C39.1364 28.3315 32.647 35.4765 24.0817 37.085V25.5052H29.0138L30.0966 18.791H24.0817V16.9895C24.0817 16.0631 24.2586 15.2331 24.5567 14.7346C24.8548 14.236 25.1422 14.0196 25.847 14.0196H29.9911V8.04481L29.183 7.94018C28.6241 7.86771 27.3481 7.69777 25.0463 7.69777C22.5275 7.69777 20.3654 8.35526 18.873 9.84282C17.3805 11.3304 16.6435 13.5454 16.6435 16.4053V18.7927H11.8006V25.5069H16.6435V37.0292C8.21584 35.3185 1.86364 28.2374 1.86364 19.6438C1.86364 9.7705 10.1964 1.7858 20.5 1.7858Z" fill="black"/>
</svg>
