<svg width="1619" height="888" viewBox="0 0 1619 888" fill="none" xmlns="http://www.w3.org/2000/svg">
<rect width="1619" height="50" fill="black"/>
<rect x="50" y="38" width="850" height="50" transform="rotate(90 50 38)" fill="black"/>
<rect x="1619" y="38" width="850" height="50" transform="rotate(90 1619 38)" fill="black"/>
<path d="M745.066 26.2246C745.698 26.6413 746.362 27.0319 747.059 27.3965C747.755 27.7546 748.475 28.0671 749.217 28.334C749.965 28.6009 750.73 28.8125 751.512 28.9688C752.299 29.1185 753.1 29.1934 753.914 29.1934C754.227 29.1934 754.526 29.1738 754.812 29.1348C755.105 29.0957 755.359 29.0339 755.574 28.9492C755.796 28.8581 755.971 28.7409 756.102 28.5977C756.238 28.4479 756.307 28.2689 756.307 28.0605C756.307 27.8717 756.251 27.6829 756.141 27.4941C756.03 27.2988 755.815 27.1133 755.496 26.9375C755.184 26.7617 754.744 26.599 754.178 26.4492C753.611 26.293 752.876 26.1562 751.971 26.0391C750.76 25.8828 749.708 25.681 748.816 25.4336C747.924 25.1862 747.186 24.8704 746.6 24.4863C746.014 24.1022 745.577 23.64 745.291 23.0996C745.005 22.5592 744.861 21.918 744.861 21.1758C744.861 20.4661 745.021 19.8314 745.34 19.2715C745.665 18.7051 746.131 18.2266 746.736 17.8359C747.342 17.4453 748.077 17.1458 748.943 16.9375C749.809 16.7292 750.786 16.625 751.873 16.625C752.322 16.625 752.775 16.651 753.23 16.7031C753.686 16.7487 754.135 16.8138 754.578 16.8984C755.021 16.9831 755.454 17.084 755.877 17.2012C756.3 17.3118 756.697 17.429 757.068 17.5527L758.982 16.498H760.32V21.1855C759.624 20.7754 758.921 20.4141 758.211 20.1016C757.508 19.7891 756.808 19.5286 756.111 19.3203C755.421 19.1055 754.744 18.946 754.08 18.8418C753.423 18.7311 752.794 18.6758 752.195 18.6758C751.805 18.6758 751.45 18.7051 751.131 18.7637C750.818 18.8223 750.551 18.9004 750.33 18.998C750.115 19.0957 749.949 19.2129 749.832 19.3496C749.715 19.4798 749.656 19.6198 749.656 19.7695C749.656 19.9844 749.715 20.1797 749.832 20.3555C749.949 20.5247 750.177 20.6842 750.516 20.834C750.854 20.9837 751.329 21.1302 751.941 21.2734C752.553 21.4102 753.354 21.5599 754.344 21.7227C755.001 21.8333 755.63 21.9505 756.229 22.0742C756.827 22.1979 757.384 22.3477 757.898 22.5234C758.413 22.6927 758.875 22.8978 759.285 23.1387C759.702 23.3796 760.057 23.6693 760.35 24.0078C760.643 24.3464 760.867 24.7435 761.023 25.1992C761.186 25.6549 761.268 26.1855 761.268 26.791C761.268 27.5983 761.072 28.2917 760.682 28.8711C760.291 29.4505 759.764 29.9258 759.1 30.2969C758.436 30.668 757.661 30.9414 756.775 31.1172C755.896 31.293 754.969 31.3809 753.992 31.3809C753.081 31.3809 752.16 31.2832 751.229 31.0879C750.298 30.8991 749.406 30.5898 748.553 30.1602L746.99 31.1367H745.066V26.2246ZM765.125 19.4766L762.859 16.9961H770.174V28.5195L772.439 31H765.125V19.4766ZM776.092 28.5195V19.75L773.084 16.9961H780.545L788.416 24.0273V19.4766L785.682 16.9961H793.523L791.072 19.4766V31H788.416L778.748 22.1719V28.5195L781.688 31H773.445L776.092 28.5195ZM794.559 23.998C794.559 23.1322 794.686 22.3477 794.939 21.6445C795.193 20.9414 795.545 20.3164 795.994 19.7695C796.443 19.2227 796.974 18.7539 797.586 18.3633C798.198 17.9661 798.862 17.6406 799.578 17.3867C800.301 17.1263 801.059 16.9342 801.854 16.8105C802.648 16.6868 803.452 16.625 804.266 16.625C804.865 16.625 805.431 16.6608 805.965 16.7324C806.499 16.804 806.997 16.9017 807.459 17.0254C807.928 17.1426 808.357 17.2793 808.748 17.4355C809.139 17.5918 809.49 17.7546 809.803 17.9238L810.516 16.9961H812.557V21.957L809.969 22.4453C809.812 21.918 809.581 21.4264 809.275 20.9707C808.969 20.515 808.602 20.1211 808.172 19.7891C807.742 19.457 807.254 19.1966 806.707 19.0078C806.167 18.8125 805.577 18.7148 804.939 18.7148C804.119 18.7148 803.416 18.8613 802.83 19.1543C802.244 19.4408 801.762 19.8281 801.385 20.3164C801.014 20.7982 800.74 21.3581 800.564 21.9961C800.389 22.6341 800.301 23.3014 800.301 23.998C800.301 24.8509 800.424 25.6061 800.672 26.2637C800.926 26.9212 801.277 27.4746 801.727 27.9238C802.176 28.3665 802.706 28.7018 803.318 28.9297C803.937 29.1576 804.614 29.2715 805.35 29.2715C805.923 29.2715 806.463 29.1999 806.971 29.0566C807.479 28.9069 807.924 28.6823 808.309 28.3828C808.699 28.0768 809.015 27.6927 809.256 27.2305C809.503 26.7682 809.653 26.2214 809.705 25.5898H812.693C812.693 26.2083 812.592 26.7812 812.391 27.3086C812.195 27.8359 811.915 28.3145 811.551 28.7441C811.193 29.1738 810.76 29.5547 810.252 29.8867C809.744 30.2122 809.178 30.4857 808.553 30.707C807.928 30.9284 807.254 31.0944 806.531 31.2051C805.815 31.3223 805.063 31.3809 804.275 31.3809C803.533 31.3809 802.775 31.3288 802 31.2246C801.232 31.127 800.486 30.9642 799.764 30.7363C799.048 30.5085 798.374 30.209 797.742 29.8379C797.111 29.4603 796.557 28.998 796.082 28.4512C795.613 27.9043 795.242 27.263 794.969 26.5273C794.695 25.7917 794.559 24.9486 794.559 23.998ZM816.775 28.5195V19.4766L814.031 16.9961H831.775L831.58 21.8398L827.684 19.2324H821.922V22.4648H827.801V24.6133H821.922V28.7637H827.684L831.678 26.3809V31H814.031L816.775 28.5195ZM842.371 28.5195V20.4531L839.617 18.8516L845.574 16.9961H847.322V28.5195L849.969 31H839.725L842.371 28.5195ZM851.756 28.2168C851.756 28.1191 851.766 28.0182 851.785 27.9141C851.805 27.8034 851.831 27.7025 851.863 27.6113L855.926 27.0352C855.9 27.1523 855.877 27.263 855.857 27.3672C855.844 27.4714 855.838 27.5885 855.838 27.7188C855.838 27.888 855.89 28.0703 855.994 28.2656C856.105 28.4609 856.281 28.64 856.521 28.8027C856.762 28.9655 857.075 29.1022 857.459 29.2129C857.85 29.3171 858.328 29.3691 858.895 29.3691C859.552 29.3691 860.109 29.2812 860.564 29.1055C861.02 28.9232 861.391 28.6562 861.678 28.3047C861.964 27.9466 862.169 27.5039 862.293 26.9766C862.423 26.4492 862.488 25.8372 862.488 25.1406C862.182 25.2773 861.847 25.401 861.482 25.5117C861.118 25.6159 860.73 25.7038 860.32 25.7754C859.917 25.847 859.497 25.9023 859.061 25.9414C858.631 25.9805 858.198 26 857.762 26C857.234 26 856.704 25.9674 856.17 25.9023C855.643 25.8307 855.135 25.7201 854.646 25.5703C854.165 25.4206 853.712 25.2318 853.289 25.0039C852.866 24.776 852.498 24.5059 852.186 24.1934C851.88 23.8743 851.635 23.5098 851.453 23.0996C851.277 22.6895 851.189 22.2305 851.189 21.7227C851.189 21.1042 851.29 20.5475 851.492 20.0527C851.694 19.5579 851.974 19.1217 852.332 18.7441C852.697 18.3665 853.126 18.0443 853.621 17.7773C854.122 17.5104 854.666 17.2923 855.252 17.123C855.844 16.9473 856.469 16.8203 857.127 16.7422C857.791 16.6641 858.465 16.625 859.148 16.625C862.026 16.625 864.161 17.2207 865.555 18.4121C866.954 19.597 867.654 21.3841 867.654 23.7734C867.654 24.8542 867.472 25.86 867.107 26.791C866.743 27.7155 866.193 28.5195 865.457 29.2031C864.728 29.8802 863.81 30.4141 862.703 30.8047C861.603 31.1888 860.311 31.3809 858.826 31.3809C858.253 31.3809 857.68 31.3548 857.107 31.3027C856.541 31.2572 855.994 31.1823 855.467 31.0781C854.946 30.9805 854.458 30.8503 854.002 30.6875C853.553 30.5182 853.162 30.3164 852.83 30.082C852.498 29.8477 852.234 29.5775 852.039 29.2715C851.85 28.959 851.756 28.6074 851.756 28.2168ZM859.148 23.8809C859.669 23.8809 860.213 23.8158 860.779 23.6855C861.346 23.5553 861.902 23.3763 862.449 23.1484C862.43 22.4779 862.352 21.8659 862.215 21.3125C862.085 20.7591 861.886 20.2839 861.619 19.8867C861.359 19.4896 861.023 19.1803 860.613 18.959C860.21 18.7376 859.721 18.627 859.148 18.627C858.191 18.627 857.485 18.8678 857.029 19.3496C856.574 19.8314 856.346 20.4922 856.346 21.332C856.346 21.7292 856.408 22.0872 856.531 22.4062C856.661 22.7188 856.847 22.9857 857.088 23.207C857.329 23.4219 857.622 23.5879 857.967 23.7051C858.318 23.8223 858.712 23.8809 859.148 23.8809ZM870.008 27.5723C870.008 27.1165 870.118 26.7161 870.34 26.3711C870.561 26.026 870.854 25.7298 871.219 25.4824C871.59 25.2285 872.013 25.0202 872.488 24.8574C872.97 24.6947 873.468 24.5677 873.982 24.4766C873.527 24.2878 873.1 24.0762 872.703 23.8418C872.312 23.6074 871.971 23.3405 871.678 23.041C871.391 22.7415 871.163 22.4062 870.994 22.0352C870.831 21.6641 870.75 21.2474 870.75 20.7852C870.75 20.2643 870.854 19.8021 871.062 19.3984C871.271 18.9883 871.554 18.6302 871.912 18.3242C872.27 18.0117 872.69 17.748 873.172 17.5332C873.654 17.3184 874.168 17.1458 874.715 17.0156C875.262 16.8789 875.828 16.7812 876.414 16.7227C877 16.6576 877.576 16.625 878.143 16.625C879.158 16.625 880.109 16.6999 880.994 16.8496C881.88 16.9928 882.648 17.2109 883.299 17.5039C883.956 17.7969 884.474 18.168 884.852 18.6172C885.229 19.0664 885.418 19.5938 885.418 20.1992C885.418 20.5573 885.343 20.8828 885.193 21.1758C885.044 21.4688 884.835 21.7324 884.568 21.9668C884.308 22.1947 883.995 22.3932 883.631 22.5625C883.273 22.7318 882.879 22.8717 882.449 22.9824C882.983 23.1257 883.488 23.3047 883.963 23.5195C884.438 23.7279 884.855 23.9883 885.213 24.3008C885.577 24.6133 885.864 24.9811 886.072 25.4043C886.287 25.821 886.395 26.3125 886.395 26.8789C886.395 27.6732 886.193 28.3535 885.789 28.9199C885.392 29.4863 884.829 29.9551 884.1 30.3262C883.377 30.6908 882.505 30.9577 881.482 31.127C880.467 31.3027 879.34 31.3906 878.104 31.3906C876.84 31.3906 875.708 31.2962 874.705 31.1074C873.709 30.9186 872.863 30.6549 872.166 30.3164C871.469 29.9779 870.936 29.5742 870.564 29.1055C870.193 28.6367 870.008 28.1257 870.008 27.5723ZM875.779 20.4629C875.779 20.7819 875.893 21.0488 876.121 21.2637C876.349 21.472 876.655 21.651 877.039 21.8008C877.423 21.944 877.869 22.0677 878.377 22.1719C878.885 22.2695 879.419 22.3672 879.979 22.4648C881.098 22.1589 881.658 21.5046 881.658 20.502C881.658 20.1504 881.557 19.8574 881.355 19.623C881.16 19.3887 880.91 19.2031 880.604 19.0664C880.304 18.9232 879.975 18.8255 879.617 18.7734C879.259 18.7148 878.917 18.6855 878.592 18.6855C878.182 18.6855 877.804 18.7311 877.459 18.8223C877.114 18.9069 876.814 19.0306 876.561 19.1934C876.313 19.3496 876.121 19.5384 875.984 19.7598C875.848 19.9746 875.779 20.209 875.779 20.4629ZM874.188 26.8984C874.188 27.2565 874.305 27.582 874.539 27.875C874.773 28.1615 875.086 28.4089 875.477 28.6172C875.867 28.819 876.316 28.9753 876.824 29.0859C877.339 29.1966 877.872 29.252 878.426 29.252C878.966 29.252 879.454 29.2259 879.891 29.1738C880.327 29.1152 880.698 29.0208 881.004 28.8906C881.31 28.7539 881.544 28.5814 881.707 28.373C881.87 28.1582 881.951 27.8945 881.951 27.582C881.951 27.3607 881.857 27.1621 881.668 26.9863C881.486 26.8105 881.232 26.651 880.906 26.5078C880.587 26.3646 880.21 26.2344 879.773 26.1172C879.337 25.9935 878.872 25.8763 878.377 25.7656C877.986 25.6745 877.589 25.5801 877.186 25.4824C876.782 25.3783 876.375 25.2676 875.965 25.1504C875.704 25.2285 875.464 25.3262 875.242 25.4434C875.027 25.5605 874.842 25.694 874.686 25.8438C874.529 25.987 874.406 26.1497 874.314 26.332C874.23 26.5078 874.188 26.6966 874.188 26.8984ZM888.348 27.5723C888.348 27.1165 888.458 26.7161 888.68 26.3711C888.901 26.026 889.194 25.7298 889.559 25.4824C889.93 25.2285 890.353 25.0202 890.828 24.8574C891.31 24.6947 891.808 24.5677 892.322 24.4766C891.867 24.2878 891.44 24.0762 891.043 23.8418C890.652 23.6074 890.311 23.3405 890.018 23.041C889.731 22.7415 889.503 22.4062 889.334 22.0352C889.171 21.6641 889.09 21.2474 889.09 20.7852C889.09 20.2643 889.194 19.8021 889.402 19.3984C889.611 18.9883 889.894 18.6302 890.252 18.3242C890.61 18.0117 891.03 17.748 891.512 17.5332C891.993 17.3184 892.508 17.1458 893.055 17.0156C893.602 16.8789 894.168 16.7812 894.754 16.7227C895.34 16.6576 895.916 16.625 896.482 16.625C897.498 16.625 898.449 16.6999 899.334 16.8496C900.219 16.9928 900.988 17.2109 901.639 17.5039C902.296 17.7969 902.814 18.168 903.191 18.6172C903.569 19.0664 903.758 19.5938 903.758 20.1992C903.758 20.5573 903.683 20.8828 903.533 21.1758C903.383 21.4688 903.175 21.7324 902.908 21.9668C902.648 22.1947 902.335 22.3932 901.971 22.5625C901.613 22.7318 901.219 22.8717 900.789 22.9824C901.323 23.1257 901.827 23.3047 902.303 23.5195C902.778 23.7279 903.195 23.9883 903.553 24.3008C903.917 24.6133 904.204 24.9811 904.412 25.4043C904.627 25.821 904.734 26.3125 904.734 26.8789C904.734 27.6732 904.533 28.3535 904.129 28.9199C903.732 29.4863 903.169 29.9551 902.439 30.3262C901.717 30.6908 900.844 30.9577 899.822 31.127C898.807 31.3027 897.68 31.3906 896.443 31.3906C895.18 31.3906 894.048 31.2962 893.045 31.1074C892.049 30.9186 891.202 30.6549 890.506 30.3164C889.809 29.9779 889.275 29.5742 888.904 29.1055C888.533 28.6367 888.348 28.1257 888.348 27.5723ZM894.119 20.4629C894.119 20.7819 894.233 21.0488 894.461 21.2637C894.689 21.472 894.995 21.651 895.379 21.8008C895.763 21.944 896.209 22.0677 896.717 22.1719C897.225 22.2695 897.758 22.3672 898.318 22.4648C899.438 22.1589 899.998 21.5046 899.998 20.502C899.998 20.1504 899.897 19.8574 899.695 19.623C899.5 19.3887 899.249 19.2031 898.943 19.0664C898.644 18.9232 898.315 18.8255 897.957 18.7734C897.599 18.7148 897.257 18.6855 896.932 18.6855C896.521 18.6855 896.144 18.7311 895.799 18.8223C895.454 18.9069 895.154 19.0306 894.9 19.1934C894.653 19.3496 894.461 19.5384 894.324 19.7598C894.188 19.9746 894.119 20.209 894.119 20.4629ZM892.527 26.8984C892.527 27.2565 892.645 27.582 892.879 27.875C893.113 28.1615 893.426 28.4089 893.816 28.6172C894.207 28.819 894.656 28.9753 895.164 29.0859C895.678 29.1966 896.212 29.252 896.766 29.252C897.306 29.252 897.794 29.2259 898.23 29.1738C898.667 29.1152 899.038 29.0208 899.344 28.8906C899.65 28.7539 899.884 28.5814 900.047 28.373C900.21 28.1582 900.291 27.8945 900.291 27.582C900.291 27.3607 900.197 27.1621 900.008 26.9863C899.826 26.8105 899.572 26.651 899.246 26.5078C898.927 26.3646 898.549 26.2344 898.113 26.1172C897.677 25.9935 897.212 25.8763 896.717 25.7656C896.326 25.6745 895.929 25.5801 895.525 25.4824C895.122 25.3783 894.715 25.2676 894.305 25.1504C894.044 25.2285 893.803 25.3262 893.582 25.4434C893.367 25.5605 893.182 25.694 893.025 25.8438C892.869 25.987 892.745 26.1497 892.654 26.332C892.57 26.5078 892.527 26.6966 892.527 26.8984Z" fill="#F0EBD8"/>
</svg>
